<svg xmlns="http://www.w3.org/2000/svg" xmlns:xlink="http://www.w3.org/1999/xlink" version="1.1" width="256" height="256" viewBox="0 0 256 256" xml:space="preserve">

<defs>
</defs>
<g style="stroke: none; stroke-width: 0; stroke-dasharray: none; stroke-linecap: butt; stroke-linejoin: miter; stroke-miterlimit: 10; fill: none; fill-rule: nonzero; opacity: 1;" transform="translate(1.4065934065934016 1.4065934065934016) scale(2.81 2.81)" >
	<path d="M 61.36 9.609 H 4.575 C 2.048 9.609 0 11.657 0 14.184 v 36.805 c 0 2.527 2.048 4.575 4.575 4.575 h 21.398 v 15.583 l 13.989 -15.583 H 61.36 c 2.527 0 4.575 -2.048 4.575 -4.575 V 14.184 C 65.935 11.657 63.887 9.609 61.36 9.609 z M 16.827 36.938 c 0 0.565 -0.458 1.023 -1.023 1.023 c -0.565 0 -1.023 -0.458 -1.023 -1.023 v -7.35 c 0 -0.565 0.458 -1.023 1.023 -1.023 c 0.565 0 1.023 0.458 1.023 1.023 V 36.938 z M 47.15 40.386 c 0 2.699 -2.196 4.894 -4.895 4.894 H 23.68 c -2.699 0 -4.894 -2.196 -4.894 -4.894 V 27.027 c 0 -2.699 2.196 -4.895 4.894 -4.895 h 8.265 v -4.28 c 0 -0.565 0.458 -1.023 1.023 -1.023 c 0.565 0 1.023 0.458 1.023 1.023 v 4.28 h 8.265 c 2.699 0 4.895 2.196 4.895 4.895 V 40.386 z M 51.154 36.938 c 0 0.565 -0.457 1.023 -1.023 1.023 c -0.565 0 -1.023 -0.458 -1.023 -1.023 v -7.35 c 0 -0.565 0.457 -1.023 1.023 -1.023 c 0.565 0 1.023 0.458 1.023 1.023 V 36.938 z" style="stroke: none; stroke-width: 1; stroke-dasharray: none; stroke-linecap: butt; stroke-linejoin: miter; stroke-miterlimit: 10; fill: rgb(255,255,255); fill-rule: nonzero; opacity: 1;" transform=" matrix(1 0 0 1 0 0) " stroke-linecap="round" />
	<path d="M 28.488 33.018 c -0.565 0 -1.023 -0.458 -1.023 -1.023 v -2.69 c 0 -0.565 0.458 -1.023 1.023 -1.023 s 1.023 0.458 1.023 1.023 v 2.69 C 29.51 32.56 29.052 33.018 28.488 33.018 z" style="stroke: none; stroke-width: 1; stroke-dasharray: none; stroke-linecap: butt; stroke-linejoin: miter; stroke-miterlimit: 10; fill: rgb(255,255,255); fill-rule: nonzero; opacity: 1;" transform=" matrix(1 0 0 1 0 0) " stroke-linecap="round" />
	<path d="M 37.448 33.018 c -0.565 0 -1.023 -0.458 -1.023 -1.023 v -2.69 c 0 -0.565 0.458 -1.023 1.023 -1.023 s 1.023 0.458 1.023 1.023 v 2.69 C 38.471 32.56 38.013 33.018 37.448 33.018 z" style="stroke: none; stroke-width: 1; stroke-dasharray: none; stroke-linecap: butt; stroke-linejoin: miter; stroke-miterlimit: 10; fill: rgb(255,255,255); fill-rule: nonzero; opacity: 1;" transform=" matrix(1 0 0 1 0 0) " stroke-linecap="round" />
	<path d="M 32.967 39.635 c -1.714 0 -3.428 -0.626 -5.095 -1.879 c -0.451 -0.34 -0.542 -0.98 -0.203 -1.432 c 0.339 -0.451 0.981 -0.542 1.432 -0.203 c 2.638 1.984 5.095 1.983 7.731 0 c 0.452 -0.339 1.094 -0.248 1.432 0.203 c 0.34 0.452 0.249 1.093 -0.203 1.432 C 36.396 39.008 34.682 39.635 32.967 39.635 z" style="stroke: none; stroke-width: 1; stroke-dasharray: none; stroke-linecap: butt; stroke-linejoin: miter; stroke-miterlimit: 10; fill: rgb(255,255,255); fill-rule: nonzero; opacity: 1;" transform=" matrix(1 0 0 1 0 0) " stroke-linecap="round" />
	<path d="M 85.425 30.89 H 73.698 h -3.762 v 20.099 c 0 4.729 -3.847 8.575 -8.575 8.575 H 41.747 l -4.602 5.127 c 0.516 1.822 2.174 3.165 4.162 3.165 h 16.548 l 11.253 12.535 V 67.856 h 16.317 c 2.527 0 4.575 -2.048 4.575 -4.575 V 35.466 C 90 32.939 87.952 30.89 85.425 30.89 z" style="stroke: none; stroke-width: 1; stroke-dasharray: none; stroke-linecap: butt; stroke-linejoin: miter; stroke-miterlimit: 10; fill: rgb(255,255,255); fill-rule: nonzero; opacity: 1;" transform=" matrix(1 0 0 1 0 0) " stroke-linecap="round" />
</g>
</svg>